<svg width="600" height="600" viewBox="0 0 600 600" fill="none" xmlns="http://www.w3.org/2000/svg">
<rect width="600" height="600" fill="#F8F8F8"/>
<path d="M340.75 368.25H244.5C240.853 368.25 237.356 366.801 234.777 364.223C232.199 361.644 230.75 358.147 230.75 354.5V258.25M368.25 306.375L359.34 297.465C356.233 294.358 352.019 292.613 347.625 292.613C343.231 292.613 339.017 294.358 335.91 297.465L292.625 340.75M313.25 272C313.25 279.594 307.094 285.75 299.5 285.75C291.906 285.75 285.75 279.594 285.75 272C285.75 264.406 291.906 258.25 299.5 258.25C307.094 258.25 313.25 264.406 313.25 272ZM272 230.75H354.5C362.094 230.75 368.25 236.906 368.25 244.5V327C368.25 334.594 362.094 340.75 354.5 340.75H272C264.406 340.75 258.25 334.594 258.25 327V244.5C258.25 236.906 264.406 230.75 272 230.75Z" stroke="#888888" stroke-width="2" stroke-linecap="round" stroke-linejoin="round"/>
</svg>
